<svg width="116" height="119" viewBox="0 0 116 119" fill="none" xmlns="http://www.w3.org/2000/svg">
<path d="M22.2275 76.8643L18.063 64.3967L22.2275 51.3986L35.9209 43.494L54.8833 54.4434C55.4658 54.7791 55.6997 55.1841 55.6997 55.8576V57.5381C34.3681 69.8542 43.5591 64.5483 22.2275 76.8643Z" fill="url(#paint0_linear_1_69)"/>
<path d="M26.8297 76.8876L53.4064 92.2333C56.3344 93.9225 59.6868 93.9225 62.6147 92.2333L51.4703 116.579L6.51379 90.6221C2.47703 88.2052 0.172779 84.136 0.172779 79.4105V64.1233L22.2255 51.3893V68.9137C22.2255 72.2942 23.9017 75.1984 26.8297 76.8876Z" fill="url(#paint1_linear_1_69)"/>
<path d="M62.6168 92.2361C78.8332 82.874 99.6103 70.8785 115.827 61.5164V86.9801L64.5529 116.582C60.3949 118.984 55.6326 118.984 51.4724 116.582L29.4219 103.85C33.5821 106.25 38.3421 106.25 42.5023 103.85L62.6168 92.2361Z" fill="url(#paint2_linear_1_69)"/>
<path d="M93.7717 41.5309L97.2129 54.4338L93.7717 66.9967L80.0805 74.9013L61.116 63.9518C60.5334 63.6161 60.2995 63.2112 60.2995 62.5377V60.8571C81.6311 48.5411 72.4401 53.8469 93.7717 41.5309Z" fill="url(#paint3_linear_1_69)"/>
<path d="M89.1676 41.4917L62.5908 26.146C59.6629 24.4568 56.3105 24.4568 53.3825 26.146L64.5269 1.79985L109.483 27.7572C113.52 30.1741 115.827 34.2433 115.827 38.9688V54.256L93.7718 66.99V49.4656C93.7718 46.0851 92.0955 43.1809 89.1676 41.4917Z" fill="url(#paint4_linear_1_69)"/>
<path d="M53.3817 26.1474C37.1654 35.5095 16.3882 47.505 0.174019 56.8671V31.4013L51.4456 1.80127C55.6036 -0.600424 60.3659 -0.600424 64.5261 1.80127L86.5767 14.5331C82.4186 12.1336 77.6564 12.1336 73.4962 14.5331L53.3817 26.1474Z" fill="url(#paint5_linear_1_69)"/>
<path d="M62.4609 26.0727C59.5329 24.3814 56.1805 24.3814 53.2526 26.0727L73.3671 14.4584C77.5273 12.0567 82.2895 12.0567 86.4497 14.4584L92.4854 17.9451C88.3252 15.5434 83.5629 15.5434 79.4027 17.9451L63.8924 26.9L62.4609 26.0727Z" fill="#020C6A"/>
<path d="M53.4113 92.2341C56.3393 93.9233 59.6917 93.9233 62.6196 92.2341L42.5051 103.848C38.3449 106.248 33.5849 106.248 29.4247 103.848L23.389 100.362C27.5492 102.763 32.3093 102.763 36.4695 100.362L51.9798 91.4068L53.4113 92.2341Z" fill="#020C6A"/>
<path d="M91.871 52.6751C91.505 49.9118 89.8202 47.7223 87.243 46.6568L85.8722 46.0916C87.3535 45.2361 89.0925 44.2335 91.1737 43.0315C92.8477 44.7142 93.7725 46.9622 93.7725 49.4721V66.9965L91.871 52.6751Z" fill="#01052D"/>
<path d="M24.1276 65.7096C24.4958 68.473 26.1807 70.6625 28.7556 71.728L30.1265 72.2932C28.6452 73.1486 26.9062 74.1513 24.825 75.3532C23.1509 73.6705 22.2262 71.4226 22.2262 68.9126V51.3883L24.1276 65.7096Z" fill="#01052D"/>
<defs>
<linearGradient id="paint0_linear_1_69" x1="17.3202" y1="64.6761" x2="50.5433" y2="51.9616" gradientUnits="userSpaceOnUse">
<stop stop-color="#021B8D"/>
<stop offset="1" stop-color="#0463EF"/>
</linearGradient>
<linearGradient id="paint1_linear_1_69" x1="47.6567" y1="128.352" x2="13.8531" y2="42.6531" gradientUnits="userSpaceOnUse">
<stop stop-color="#0049E7"/>
<stop offset="1" stop-color="#9C00D3"/>
</linearGradient>
<linearGradient id="paint2_linear_1_69" x1="123.93" y1="71.355" x2="37.1835" y2="115.181" gradientUnits="userSpaceOnUse">
<stop stop-color="#0049E7"/>
<stop offset="0.61" stop-color="#1A85F8"/>
<stop offset="1" stop-color="#66E5FB"/>
</linearGradient>
<linearGradient id="paint3_linear_1_69" x1="94.3023" y1="43.5558" x2="71.2035" y2="70.8061" gradientUnits="userSpaceOnUse">
<stop stop-color="#021B8D"/>
<stop offset="1" stop-color="#0463EF"/>
</linearGradient>
<linearGradient id="paint4_linear_1_69" x1="68.3406" y1="-9.97474" x2="102.144" y2="75.724" gradientUnits="userSpaceOnUse">
<stop stop-color="#0049E7"/>
<stop offset="1" stop-color="#7F0085"/>
</linearGradient>
<linearGradient id="paint5_linear_1_69" x1="-4.56874" y1="50.6452" x2="82.057" y2="0.633991" gradientUnits="userSpaceOnUse">
<stop stop-color="#0131B9"/>
<stop offset="0.43" stop-color="#078DAB"/>
<stop offset="1" stop-color="#55F9EF"/>
</linearGradient>
</defs>
</svg>
