<svg width="554" height="76" viewBox="0 0 554 76" fill="none" xmlns="http://www.w3.org/2000/svg">
<path d="M41.1785 3.88351V11.6835H25.3785V66.5835H41.1785V74.3835H0.578516V66.5835H16.3785V11.6835H0.578516V3.88351H41.1785ZM49.748 24.6835H58.648V32.9835L57.148 38.9835H59.648C60.7147 34.3168 62.848 30.6168 66.048 27.8835C69.3147 25.0835 73.548 23.6835 78.748 23.6835C84.548 23.6835 89.1147 25.4168 92.448 28.8835C95.7814 32.3502 97.4481 37.4835 97.4481 44.2835V74.3835H88.648V45.4835C88.648 40.4168 87.648 36.7835 85.648 34.5835C83.648 32.3835 80.5147 31.2835 76.248 31.2835C70.9814 31.2835 66.7147 33.1835 63.448 36.9835C60.248 40.7835 58.648 45.9835 58.648 52.5835V74.3835H49.748V24.6835ZM139.116 74.3835H119.616C117.283 74.3835 115.516 73.8168 114.316 72.6835C113.183 71.5502 112.616 69.7835 112.616 67.3835V32.2835H101.616V24.6835H112.616V12.0835L121.516 9.38351V24.6835H137.116V32.2835H121.516V66.8835L139.116 66.7835V74.3835ZM143.018 48.8835C143.018 40.9502 145.184 34.7835 149.518 30.3835C153.851 25.9168 159.618 23.6835 166.818 23.6835C174.284 23.6835 180.184 25.8502 184.518 30.1835C188.918 34.4502 191.118 40.3835 191.118 47.9835V51.1835H151.618C151.751 56.2502 153.151 60.3835 155.818 63.5835C158.551 66.7168 162.384 68.2835 167.318 68.2835C171.451 68.2835 174.784 67.2835 177.318 65.2835C179.918 63.2835 181.651 60.5168 182.518 56.9835H191.318C190.184 62.2502 187.684 66.6502 183.818 70.1835C179.951 73.6502 174.484 75.3835 167.418 75.3835C162.218 75.3835 157.784 74.2168 154.118 71.8835C150.451 69.5502 147.684 66.3835 145.818 62.3835C143.951 58.3835 143.018 53.8835 143.018 48.8835ZM182.418 44.8835C182.151 40.4168 180.584 36.9502 177.718 34.4835C174.918 31.9502 171.284 30.6835 166.818 30.6835C162.618 30.6835 159.118 31.9502 156.318 34.4835C153.584 37.0168 152.051 40.4835 151.718 44.8835H182.418ZM200.321 31.5835C200.321 26.9835 202.654 24.6835 207.321 24.6835H235.421V32.2835H209.221V74.3835H200.321V31.5835ZM261.18 75.3835C253.78 75.3835 248.013 73.7168 243.88 70.3835C239.813 66.9835 237.78 62.2168 237.78 56.0835H246.68C246.68 60.1502 247.947 63.2168 250.48 65.2835C253.013 67.3502 256.613 68.3835 261.28 68.3835C264.813 68.3835 267.447 67.8168 269.18 66.6835C270.98 65.4835 271.88 63.6168 271.88 61.0835C271.88 59.3502 271.313 57.9502 270.18 56.8835C269.047 55.8168 267.18 54.9502 264.58 54.2835L251.28 50.3835C247.947 49.4502 245.18 47.9502 242.98 45.8835C240.847 43.7502 239.78 40.8835 239.78 37.2835C239.78 32.9502 241.447 29.6168 244.78 27.2835C248.18 24.8835 252.847 23.6835 258.78 23.6835C265.247 23.6835 270.313 25.1502 273.98 28.0835C277.713 30.9502 279.58 35.0502 279.58 40.3835H270.68C270.68 37.1168 269.68 34.6835 267.68 33.0835C265.68 31.4168 262.747 30.5835 258.88 30.5835C255.613 30.5835 253.08 31.1502 251.28 32.2835C249.48 33.4168 248.58 35.0502 248.58 37.1835C248.58 38.7835 249.147 40.1168 250.28 41.1835C251.413 42.1835 253.213 43.0502 255.68 43.7835L267.28 47.0835C271.68 48.3502 275.013 50.1168 277.28 52.3835C279.613 54.6502 280.78 57.6168 280.78 61.2835C280.78 65.8168 279.08 69.3168 275.68 71.7835C272.347 74.1835 267.513 75.3835 261.18 75.3835ZM320.866 74.3835H301.366C299.033 74.3835 297.266 73.8168 296.066 72.6835C294.933 71.5502 294.366 69.7835 294.366 67.3835V32.2835H283.366V24.6835H294.366V12.0835L303.266 9.38351V24.6835H318.866V32.2835H303.266V66.8835L320.866 66.7835V74.3835ZM324.768 48.8835C324.768 40.9502 326.934 34.7835 331.268 30.3835C335.601 25.9168 341.368 23.6835 348.568 23.6835C356.034 23.6835 361.934 25.8502 366.268 30.1835C370.668 34.4502 372.868 40.3835 372.868 47.9835V51.1835H333.368C333.501 56.2502 334.901 60.3835 337.568 63.5835C340.301 66.7168 344.134 68.2835 349.068 68.2835C353.201 68.2835 356.534 67.2835 359.068 65.2835C361.668 63.2835 363.401 60.5168 364.268 56.9835H373.068C371.934 62.2502 369.434 66.6502 365.568 70.1835C361.701 73.6502 356.234 75.3835 349.168 75.3835C343.968 75.3835 339.534 74.2168 335.868 71.8835C332.201 69.5502 329.434 66.3835 327.568 62.3835C325.701 58.3835 324.768 53.8835 324.768 48.8835ZM364.168 44.8835C363.901 40.4168 362.334 36.9502 359.468 34.4835C356.668 31.9502 353.034 30.6835 348.568 30.6835C344.368 30.6835 340.868 31.9502 338.068 34.4835C335.334 37.0168 333.801 40.4835 333.468 44.8835H364.168ZM376.632 66.7835H390.532V8.48351H380.132V0.883513H394.232C395.898 0.883513 397.165 1.31684 398.032 2.18351C398.965 2.98351 399.432 4.21684 399.432 5.88351V66.7835H413.332V74.3835H376.632V66.7835ZM418.163 66.7835H432.063V8.48351H421.663V0.883513H435.763C437.43 0.883513 438.696 1.31684 439.563 2.18351C440.496 2.98351 440.963 4.21684 440.963 5.88351V66.7835H454.863V74.3835H418.163V66.7835ZM459.518 60.5835C459.518 56.4502 460.851 53.1502 463.518 50.6835C466.251 48.1502 470.451 46.6168 476.118 46.0835L495.618 44.1835C495.418 39.6502 494.251 36.3168 492.118 34.1835C489.984 31.9835 486.718 30.8835 482.318 30.8835C478.651 30.8835 475.684 31.8168 473.418 33.6835C471.151 35.5502 469.818 38.4502 469.418 42.3835H460.618C461.151 36.6502 463.284 32.1168 467.018 28.7835C470.818 25.3835 475.884 23.6835 482.218 23.6835C489.351 23.6835 494.851 25.6835 498.718 29.6835C502.584 33.6835 504.518 39.0168 504.518 45.6835V66.7835H511.818V74.3835H502.718C500.851 74.3835 499.384 73.8502 498.318 72.7835C497.251 71.7168 496.718 70.2502 496.718 68.3835V65.9835L498.118 60.6835H495.618C494.551 65.0168 492.451 68.5502 489.318 71.2835C486.251 74.0168 481.918 75.3835 476.318 75.3835C469.918 75.3835 465.518 73.8502 463.118 70.7835C460.718 67.7168 459.518 64.3168 459.518 60.5835ZM468.318 59.4835C468.318 62.2835 469.151 64.4168 470.818 65.8835C472.484 67.3502 474.784 68.0835 477.718 68.0835C481.251 68.0835 484.351 67.3168 487.018 65.7835C489.751 64.2502 491.851 62.1502 493.318 59.4835C494.851 56.8168 495.618 53.8168 495.618 50.4835L477.618 52.3835C474.418 52.7168 472.051 53.4168 470.518 54.4835C469.051 55.4835 468.318 57.1502 468.318 59.4835ZM518.188 31.5835C518.188 26.9835 520.521 24.6835 525.188 24.6835H553.288V32.2835H527.088V74.3835H518.188V31.5835Z" fill="white"/>
</svg>
